<svg width="106" height="41" viewBox="0 0 106 41" fill="none" xmlns="http://www.w3.org/2000/svg">
<path d="M45.2477 23.3494C42.6854 23.3494 41.3107 24.2221 40.2832 25.2992C40.1108 25.4801 39.8116 25.4363 39.7019 25.2116C39.4207 24.6357 39.009 24.0403 38.5568 23.6274C38.4702 23.5483 38.3508 23.516 38.2362 23.5411L36.7325 23.87C36.5676 23.906 36.4502 24.052 36.4502 24.2208V39.4206C36.4502 39.6189 36.611 39.7797 36.8094 39.7797H40.3519C40.5504 39.7797 40.7112 39.6189 40.7112 39.4206V29.5413C40.7112 28.3767 43.1632 27.3038 44.6653 27.3038C46.5352 27.3038 48.1905 28.7138 48.1905 30.645V39.4206C48.1905 39.6189 48.3513 39.7797 48.5495 39.7797H52.0615C52.2599 39.7797 52.4207 39.6189 52.4207 39.4206V30.1239C52.4207 25.8016 48.8955 23.3494 45.2477 23.3494Z" fill="#21374C"/>
<path d="M65.7111 34.4507C65.7111 34.4881 65.7068 34.5258 65.6946 34.5612C65.3857 35.4519 63.4019 36.0705 62.891 36.0705C60.3469 36.0705 59.2126 34.2619 59.2126 31.5952C59.2126 28.7443 60.8372 27.1811 62.891 27.1811C63.7095 27.1811 65.4268 27.8404 65.7022 29.0405C65.7085 29.0678 65.7111 29.0957 65.7111 29.1235V34.4507ZM69.9413 37.0515V17.3912C69.9413 17.0419 69.6581 16.759 69.3091 16.759H66.1901C65.8409 16.759 65.5579 17.0419 65.5579 17.3912V23.9122C65.5579 24.2019 65.237 24.3746 64.9948 24.2162C64.3405 23.7883 63.2636 23.3493 61.6343 23.3493C58.5383 23.3493 55.0132 25.6484 55.0132 31.4418C55.0132 36.4997 58.3849 40.0554 62.5538 40.0554C64.0417 40.0554 65.5059 39.5064 66.3981 38.6187C66.5615 38.4562 66.8352 38.4813 66.9636 38.6726C67.3127 39.1926 67.8596 39.718 68.4216 39.9683C68.5059 40.0058 68.6008 40.0116 68.6883 39.9819L70.0351 39.5254C70.2195 39.463 70.3189 39.265 70.2624 39.0787C70.0347 38.329 69.9413 37.6669 69.9413 37.0515Z" fill="#21374C"/>
<path d="M77.0494 29.5139C77.6045 28.0512 79.1447 27.1503 80.5849 27.1503C82.0691 27.1503 83.553 27.9689 84.0091 29.5356C84.0767 29.7679 83.9077 30.0012 83.6657 30.0012H77.3856C77.1341 30.0012 76.9601 29.749 77.0494 29.5139ZM87.2914 35.9875L84.6375 34.6353C84.4929 34.5616 84.3174 34.5946 84.2087 34.715C83.4508 35.5544 82.3768 36.1318 80.6462 36.1318C78.8096 36.1318 77.3895 35.1681 76.9386 33.4564C76.8786 33.2287 77.0513 33.0053 77.2868 33.0053H84.8764C86.5623 33.0053 88.0032 32.668 88.0032 30.5531C88.0032 25.955 84.6925 23.3493 80.4623 23.3493C75.7725 23.3493 72.554 26.844 72.554 31.5339C72.554 36.4078 76.0791 40.0554 80.4623 40.0554C83.6423 40.0554 85.776 39.1504 87.4335 36.498C87.5451 36.3194 87.479 36.0828 87.2914 35.9875" fill="#21374C"/>
<path d="M105.516 39.2031L99.8674 31.7829C99.7695 31.654 99.7697 31.4752 99.8683 31.3467L105.297 24.2641C105.478 24.0279 105.31 23.6867 105.012 23.6867H100.892C100.779 23.6867 100.673 23.7393 100.605 23.829L97.5673 27.8432C97.4232 28.0337 97.137 28.033 96.9938 27.8419L93.9849 23.8303C93.9171 23.7398 93.8107 23.6867 93.6976 23.6867H89.5222C89.2234 23.6867 89.0555 24.0301 89.2386 24.2658L94.6865 31.2822C94.7874 31.4122 94.7872 31.5939 94.6858 31.7235L88.8436 39.1994C88.6595 39.4351 88.8274 39.7796 89.1266 39.7796H93.4188C93.5334 39.7796 93.6413 39.7248 93.7089 39.6323L96.9578 35.1822C97.1017 34.985 97.3957 34.9856 97.5387 35.1832L100.759 39.6312C100.826 39.7244 100.934 39.7796 101.05 39.7796H105.23C105.527 39.7796 105.696 39.4394 105.516 39.2031" fill="#21374C"/>
<path d="M28.228 34.0849V39.1473C28.228 39.2552 28.2575 39.3551 28.3052 39.4439C28.4115 39.6428 28.6189 39.7795 28.8603 39.7795H32.1911C32.3893 39.7795 32.5501 39.6188 32.5501 39.4205V30.1537C31.3337 31.6866 29.874 33.0161 28.228 34.0849Z" fill="#21374C"/>
<path d="M28.2429 24.1847C28.3047 23.9002 28.5573 23.6866 28.8602 23.6866H32.191C32.3893 23.6866 32.5501 23.8474 32.5501 24.0456V30.1537C34.9895 27.0796 36.4503 23.1937 36.4503 18.9646C36.4503 9.01243 28.3825 0.94463 18.4301 0.94463C8.47796 0.94463 0.410156 9.01243 0.410156 18.9646C0.410156 28.9167 8.47796 36.9845 18.4301 36.9845C22.0443 36.9845 25.407 35.9166 28.228 34.0849V24.3188C28.228 24.2727 28.2336 24.2281 28.2429 24.1847Z" fill="#F5FAF9"/>
<path d="M32.5501 30.1537V24.0456C32.5501 23.8474 32.3893 23.6866 32.1911 23.6866H28.8603C28.5571 23.6866 28.3045 23.9 28.243 24.1847C28.2334 24.228 28.228 24.2727 28.228 24.3188V34.0849C29.874 33.0161 31.3337 31.6866 32.5501 30.1537Z" fill="#3FAAB6"/>
</svg>
